<svg width="900" height="300" viewBox="0 0 900 300" xmlns="http://www.w3.org/2000/svg" xmlns:xlink="http://www.w3.org/1999/xlink"><defs><path id="a" d="M0 0h900v299.75H0z"/><path d="M9.664 90.35l15.67-35.62a2.074 2.074 0 0 1 3.693-.201l11.554 20.05c.49.845 1.5 1.236 2.43.938l14.373-4.61c.89-.286 1.863.06 2.372.846l11.86 18.303a2.072 2.072 0 0 1-1.74 3.2H11.56a2.073 2.073 0 0 1-1.896-2.907z" id="c"/><path d="M5.03 47.662l8.153-18.765a1.094 1.094 0 0 1 1.953-.105L21.13 39.33c.257.45.795.658 1.29.498l7.45-2.42c.473-.155.99.03 1.258.45l6.175 9.65a1.094 1.094 0 0 1-.92 1.682H6.034a1.093 1.093 0 0 1-1.003-1.528z" id="d"/><path d="M8.042 77.468l13.03-30.462a1.77 1.77 0 0 1 3.172-.169L33.8 63.894a1.77 1.77 0 0 0 2.1.816l11.862-3.914c.773-.254 1.62.05 2.053.738l9.88 15.686a1.77 1.77 0 0 1-1.497 2.714H9.67a1.77 1.77 0 0 1-1.628-2.466z" id="e"/></defs><g transform="translate(1)" fill="none" fill-rule="evenodd"><mask id="b" fill="#fff"><use xlink:href="#a"/></mask><use fill="#FFF" xlink:href="#a"/><g mask="url(#b)"><g opacity=".4" stroke="#D7D7DB"><path d="M205.704 56.364l-30.51-7.044c-3.356-.775-5.475-4.127-4.708-7.45l9.762-42.283c.767-3.322 4.14-5.406 7.497-4.632L206.05-.818l14.124 22.348-6.973 30.202c-.766 3.322-4.14 5.407-7.496 4.632z" stroke-width="3.331" stroke-linecap="round" stroke-linejoin="round"/><path d="M186.49 25.015l19.746 4.558m-21.502 3.053l19.745 4.558m-21.503 3.053l19.745 4.558" stroke-width="1.11" stroke-linecap="square"/><path stroke-width="2.22" stroke-linecap="round" stroke-linejoin="round" d="M204.558 4.656l-3.14 13.596 13.736 3.17"/></g><g opacity=".4" stroke="#D7D7DB"><path d="M31.032 234.816L5.172 193.43c-2.845-4.55-1.503-10.57 2.982-13.37l57.08-35.67c4.485-2.802 10.482-1.37 13.327 3.182l15.517 24.83-8.947 40.118-40.772 25.477c-4.485 2.803-10.48 1.37-13.326-3.18z" stroke-width="5.181" stroke-linecap="round" stroke-linejoin="round"/><path d="M44.24 179.2l16.735 26.78m-27.009-20.36L50.7 212.402M23.69 192.04l16.736 26.782" stroke-width="1.727" stroke-linecap="square"/><path stroke-width="3.454" stroke-linecap="round" stroke-linejoin="round" d="M86.434 176.77L68.08 188.236l11.642 18.63"/></g><g opacity=".38" stroke="#FFF"><path d="M254.05 183.08l-16.237-12.237c-1.787-1.346-2.152-3.902-.812-5.68l17.057-22.634c1.34-1.78 3.898-2.133 5.684-.787l9.744 7.342 2.434 17.042-12.182 16.167c-1.34 1.778-3.898 2.132-5.685.786z" stroke-width="2.176" stroke-linecap="round" stroke-linejoin="round"/><path d="M250.992 159.33l10.51 7.92m-13.58-3.845l10.51 7.92m-13.58-3.845l10.51 7.918" stroke-width=".725" stroke-linecap="square"/><path stroke-width="1.451" stroke-linecap="round" stroke-linejoin="round" d="M267.14 151.955l-5.484 7.278 7.31 5.508"/></g><g opacity=".4" transform="rotate(-23 49.35 -13.88)"><path d="M70.272 103.618h-58.56C5.27 103.618 0 98.438 0 92.105V11.513C0 5.18 5.27 0 11.712 0h35.136l35.136 34.54v57.565c0 6.332-5.27 11.513-11.712 11.513z" stroke="#D7D7DB" stroke-width="6.217" stroke-linecap="round" stroke-linejoin="round"/><use fill="#D7D7DB" xlink:href="#c"/><path stroke="#FFF" stroke-width="2.072" d="M10.612 90.767a1.036 1.036 0 0 0 .948 1.453h58.315a1.036 1.036 0 0 0 .869-1.599l-11.86-18.303a1.036 1.036 0 0 0-1.186-.423l-14.373 4.61a3.11 3.11 0 0 1-3.643-1.407L28.13 55.047a1.034 1.034 0 0 0-1.846.1l-15.672 35.62z"/><ellipse fill="#D7D7DB" cx="54.656" cy="55.954" rx="8.409" ry="8.289"/><path stroke="#D7D7DB" stroke-width="4.145" stroke-linecap="round" stroke-linejoin="round" d="M46.43 10.53v25.914h26.36"/></g><g opacity=".4" transform="rotate(-31 277.133 -942.34)"><path d="M36.6 54.656H6.1c-3.355 0-6.1-2.733-6.1-6.073V6.073C0 2.733 2.745 0 6.1 0h18.3l18.3 18.22v30.363c0 3.34-2.745 6.073-6.1 6.073z" stroke="#D7D7DB" stroke-width="3.279" stroke-linecap="round" stroke-linejoin="round"/><use fill="#D7D7DB" xlink:href="#d"/><path stroke="#FFF" stroke-width="1.093" d="M5.532 47.88a.547.547 0 0 0 .502.764h30.348a.548.548 0 0 0 .46-.841l-6.174-9.65a.547.547 0 0 0-.63-.226l-7.45 2.42a1.64 1.64 0 0 1-1.932-.748L14.66 29.062a.545.545 0 0 0-.977.052L5.534 47.88z"/><ellipse fill="#D7D7DB" cx="28.467" cy="29.514" rx="4.379" ry="4.372"/><path stroke="#D7D7DB" stroke-width="2.186" stroke-linecap="round" stroke-linejoin="round" d="M24.183 5.554v13.67h13.73"/></g><g opacity=".4" transform="rotate(-47 619.44 -808.07)"><path d="M58.56 88.816H9.76c-5.368 0-9.76-4.44-9.76-9.87V9.87C0 4.44 4.392 0 9.76 0h29.28l29.28 29.605v49.342c0 5.428-4.392 9.87-9.76 9.87z" stroke="#D7D7DB" stroke-width="5.311" stroke-linecap="round" stroke-linejoin="round"/><use fill="#D7D7DB" xlink:href="#e"/><path stroke="#FFF" stroke-width="1.77" d="M8.856 77.816a.883.883 0 0 0 .814 1.233h48.528a.884.884 0 0 0 .749-1.357l-9.88-15.687a.889.889 0 0 0-1.027-.37L36.177 65.55a2.656 2.656 0 0 1-3.15-1.223L23.473 47.27a.886.886 0 0 0-1.586.084L8.856 77.816z"/><ellipse fill="#D7D7DB" cx="45.547" cy="47.961" rx="7.007" ry="7.105"/><path stroke="#D7D7DB" stroke-width="3.541" stroke-linecap="round" stroke-linejoin="round" d="M38.692 9.026v22.21H60.66"/></g><g opacity=".615"><path d="M349.344 30.434l-24.07 6.002c-2.648.66-5.35-.955-6.008-3.588L310.91-.665c-.656-2.634.973-5.328 3.62-5.988l14.442-3.6L346.995.506l5.97 23.94c.655 2.633-.974 5.327-3.62 5.987z" stroke="#D7D7DB" stroke-width="2.664" opacity=".4" stroke-linecap="round" stroke-linejoin="round"/><path d="M338.44 8.638l-.27.11c-.07-.064-.137-.13-.207-.19l.05.253-10.643 4.3c-.047-.042-.092-.086-.14-.128.01.057.023.115.034.17l-.133.055.514 2.058c.417 1.884.848 3.808 1.334 5.755.43 1.73.9 3.41 1.382 5.068-.66-.41-1.687-.603-2.806-.464-1.832.23-3.21 1.26-3.082 2.304.13 1.044 1.72 1.706 3.55 1.477 1.833-.228 3.212-1.26 3.083-2.303-.005-.04-.015-.076-.024-.114.014-.038.03-.075.04-.114-.4-1.988-.848-4.005-1.357-6.05-.492-1.972-.89-3.93-1.45-5.81l10.11-4.104c.383 1.87.81 3.767 1.287 5.686.43 1.73.9 3.41 1.383 5.067-.66-.41-1.688-.603-2.806-.463-1.832.228-3.212 1.26-3.082 2.304.13 1.044 1.72 1.705 3.55 1.477 1.832-.228 3.212-1.26 3.082-2.303-.005-.04-.015-.076-.024-.114.012-.038.028-.075.04-.113a134.197 134.197 0 0 0-2.912-11.748l-.5-2.064z" fill="#D7D7DB"/><path stroke="#D7D7DB" stroke-width="1.776" stroke-linecap="round" stroke-linejoin="round" d="M329.893-5.832l2.686 10.776 10.834-2.702"/></g><g opacity=".4"><path d="M693.556 47.014l-45.638-14.828c-5.02-1.63-7.808-7.027-6.195-11.99l20.525-63.172c1.613-4.963 7.04-7.69 12.06-6.058l27.383 8.897 18.587 35.97-14.66 45.123c-1.614 4.963-7.04 7.69-12.06 6.058z" stroke="#D7D7DB" stroke-width="5.173" stroke-linecap="round" stroke-linejoin="round"/><path d="M697.93.338l-.557-.098c-.05-.174-.093-.348-.145-.522l-.18.465L675.19-3.69c-.034-.12-.062-.237-.098-.353l-.12.313-.274-.05-1.26 3.88c-1.24 3.5-2.498 7.075-3.69 10.746-1.06 3.26-2.01 6.478-2.91 9.674-.666-1.343-2.153-2.708-4.13-3.625-3.24-1.5-6.56-1.23-7.414.604-.854 1.833 1.08 4.537 4.32 6.037s6.557 1.23 7.412-.603c.03-.07.052-.14.076-.21.06-.05.124-.094.182-.144 1.374-3.652 2.7-7.398 3.95-11.25 1.21-3.718 2.555-7.32 3.56-10.953l20.787 3.648a261.227 261.227 0 0 0-3.697 10.582 252.335 252.335 0 0 0-2.908 9.674c-.667-1.34-2.154-2.707-4.132-3.624-3.24-1.5-6.56-1.23-7.412.605-.854 1.835 1.08 4.538 4.32 6.038 3.24 1.502 6.557 1.23 7.41-.603.033-.07.054-.14.078-.21.06-.05.123-.094.182-.144a257.2 257.2 0 0 0 7.223-22.127L697.93.338z" fill="#D7D7DB"/></g><g opacity=".4"><path d="M808.28 104.93l-42.557-42.56c-4.68-4.68-4.727-12.295-.102-16.92l58.867-58.866c4.625-4.625 12.24-4.58 16.92.102l25.536 25.535.307 50.764-42.047 42.048c-4.626 4.625-12.24 4.58-16.922-.103z" stroke="#D7D7DB" stroke-width="6.405" stroke-linecap="round" stroke-linejoin="round"/><path stroke="#D7D7DB" stroke-width="4.27" stroke-linecap="round" stroke-linejoin="round" d="M858.948 19.61L840.02 38.536l19.158 19.158"/><text fill="#D7D7DB" font-family="SFUIText-Medium, SF UI Text" font-size="38.43" font-weight="400" letter-spacing="-1.036" transform="rotate(45 442.794 994.482)"><tspan x="22.274" y="82.954">{ }</tspan></text></g></g></g></svg>