<?xml version="1.0" standalone="no"?><!DOCTYPE svg PUBLIC "-//W3C//DTD SVG 1.1//EN" "http://www.w3.org/Graphics/SVG/1.1/DTD/svg11.dtd"><svg t="1733653069945" class="icon" viewBox="0 0 1024 1024" version="1.1" xmlns="http://www.w3.org/2000/svg" p-id="6250" xmlns:xlink="http://www.w3.org/1999/xlink" width="256" height="256"><path d="M506.8 517m-449.3 0a449.3 449.3 0 1 0 898.6 0 449.3 449.3 0 1 0-898.6 0Z" fill="#F5E1FF" p-id="6251"></path><path d="M511.5 518.4m-261.8 0a261.8 261.8 0 1 0 523.6 0 261.8 261.8 0 1 0-523.6 0Z" fill="#D585FF" p-id="6252"></path><path d="M511.1 513.3m-127 0a127 127 0 1 0 254 0 127 127 0 1 0-254 0Z" fill="#A611F4" p-id="6253"></path><path d="M618.6 522.3h-1c-10.7 0-19.3-8.6-19.3-19.3V284.9c0-10.7 8.6-19.3 19.3-19.3h1c10.7 0 19.3 8.6 19.3 19.3V503c0 10.7-8.6 19.3-19.3 19.3z" fill="#A611F4" p-id="6254"></path><path d="M693.1 274l-76.7 23.3c-8.9 2.7-17.8-3.9-17.8-13.2v-8.5c0-5.7 3.5-10.8 8.7-12.8l57.4-22.8c14.4-5.7 30.8 1 37.1 15.2 3.3 7.6-0.8 16.4-8.7 18.8z" fill="#A611F4" p-id="6255"></path><path d="M426 504.2c0-40.6 32.9-73.5 73.5-73.5S426 544.8 426 504.2z" fill="#D488FC" p-id="6256"></path></svg>